/* XPM */
static char *c29eb00f6a254dcdffc87deac2ed662588xgGkWEwIEaj92N[] = {
/* columns rows colors chars-per-pixel */
"64 64 256 2 ",
"   c None",
".  c #63150E",
"X  c #553030",
"o  c #612719",
"O  c #613A43",
"+  c #6A4A55",
"@  c #725C6E",
"#  c #B2320F",
"$  c #912C05",
"%  c #C33510",
"&  c #CC3F24",
"*  c #B34810",
"=  c #BB6519",
"-  c #915335",
";  c #B34A3B",
":  c #B8682F",
">  c #947D3D",
",  c #C7551A",
"<  c #CE5216",
"1  c #F15A13",
"2  c #D0681B",
"3  c #FB7217",
"4  c #EC6C13",
"5  c #D85535",
"6  c #CE5433",
"7  c #E25A2B",
"8  c #D8762A",
"9  c #C96936",
"0  c #D77838",
"q  c #D06F2F",
"w  c #ED712B",
"e  c #903C64",
"r  c #A93B5A",
"t  c #8F4C4B",
"y  c #B05255",
"u  c #A66853",
"i  c #8B4F72",
"p  c #8F6A6F",
"a  c #B77474",
"s  c #A75275",
"d  c #C85648",
"f  c #C7555A",
"g  c #D25745",
"h  c #DA6748",
"j  c #D8764B",
"k  c #D86458",
"l  c #CF744F",
"z  c #E87652",
"x  c #CC5A62",
"c  c #D55D69",
"v  c #CB656B",
"b  c #DA666B",
"n  c #D97965",
"m  c #C46C77",
"M  c #D76B77",
"N  c #D9747B",
"B  c #CA787F",
"V  c #E36E7A",
"C  c #E6747B",
"Z  c #EA7767",
"A  c #898921",
"S  c #DD883A",
"D  c #D88430",
"F  c #E5883B",
"G  c #F49130",
"H  c #F4B133",
"J  c #F4821F",
"K  c #ADAE52",
"L  c #BB8D78",
"P  c #B9B063",
"I  c #DB8944",
"U  c #D68D51",
"Y  c #E99449",
"T  c #E9885A",
"R  c #E59A54",
"E  c #EF8C4E",
"W  c #F3A55A",
"Q  c #F0AA50",
"!  c #D19070",
"~  c #EC906C",
"^  c #D2AB73",
"/  c #EAA461",
"(  c #FAB669",
")  c #FAB776",
"_  c #EAAB75",
"`  c #D1A75F",
"'  c #FBC346",
"]  c #FEC858",
"[  c #D4D776",
"{  c #FAC876",
"}  c #F7CA6B",
"|  c #E0E37F",
" . c #6C7A92",
".. c #AE5A83",
"X. c #987988",
"o. c #947794",
"O. c #A37588",
"+. c #B27294",
"@. c #B872AA",
"#. c #9A5088",
"$. c #DC7C8B",
"%. c #D77884",
"&. c #CD788B",
"*. c #E77B86",
"=. c #ED7D90",
"-. c #7A9BB5",
";. c #7DA5C7",
":. c #978699",
">. c #B89799",
",. c #A98A95",
"<. c #9793AB",
"1. c #AA96A8",
"2. c #B19BAB",
"3. c #B29EB4",
"4. c #A793AC",
"5. c #8DA0B9",
"6. c #B9A6B9",
"7. c #B8A6AB",
"8. c #DD848D",
"9. c #DA8482",
"0. c #DA8896",
"q. c #DB979B",
"w. c #CC928D",
"e. c #E6858C",
"r. c #E99689",
"t. c #F69A89",
"y. c #E38C9B",
"u. c #ED8C9A",
"i. c #E78795",
"p. c #F68A99",
"a. c #E99599",
"s. c #F59999",
"d. c #F48A89",
"f. c #D7AE8E",
"g. c #E8A39E",
"h. c #F7A697",
"j. c #E7B795",
"k. c #F0B28A",
"l. c #C998A6",
"z. c #DA98A5",
"x. c #DA97B6",
"c. c #DE86A0",
"v. c #EC95A2",
"b. c #E898A8",
"n. c #F39CAB",
"m. c #F698A6",
"M. c #E89DB1",
"N. c #F197AC",
"B. c #D6A6A9",
"V. c #CFB1B6",
"C. c #E9A5AA",
"Z. c #F3A4AD",
"A. c #F7A8A9",
"S. c #F9B4A8",
"D. c #ECABB4",
"F. c #EAA9B6",
"G. c #F3A4B4",
"H. c #F3ABB4",
"J. c #FAACB5",
"K. c #F4ACBB",
"L. c #FAACBB",
"P. c #F7A4B7",
"I. c #ECB3BC",
"U. c #E9B6B8",
"Y. c #F4B4BC",
"T. c #FBB4BC",
"R. c #F7B7B7",
"E. c #D8C791",
"W. c #F9C586",
"Q. c #FCCA95",
"!. c #E1DB8C",
"~. c #F8C7AA",
"^. c #F7C5BA",
"/. c #EDCDB4",
"(. c #EEDEAA",
"). c #92B3CE",
"_. c #B7B7CB",
"`. c #AC91C0",
"'. c #D494CA",
"]. c #C9B6C7",
"[. c #D3BCC7",
"{. c #CFBAD0",
"}. c #F6ACC4",
"|. c #ECBCCA",
" X c #EAB6C4",
".X c #F4B4C4",
"XX c #FAB4C4",
"oX c #F5BBC4",
"OX c #FBBAC5",
"+X c #FBB4C9",
"@X c #F4BCCB",
"#X c #FCBCCB",
"$X c #F6B4CB",
"%X c #EBBDD4",
"&X c #F4BED4",
"*X c #FCBED4",
"=X c #F7B8D5",
"-X c #EAADC2",
";X c #B9C3D2",
":X c #ACCBE4",
">X c #D5C4CB",
",X c #D5C3D3",
"<X c #DDCCDA",
"1X c #D9C9D7",
"2X c #DED0D9",
"3X c #EAC6CB",
"4X c #F4C2CD",
"5X c #FBC4CC",
"6X c #F9C7C8",
"7X c #F8D5C7",
"8X c #EAC9D5",
"9X c #F4C4D3",
"0X c #FBC4D4",
"qX c #F5CBD4",
"wX c #FCCAD5",
"eX c #F4C4DA",
"rX c #FCC4DB",
"tX c #F4CCDB",
"yX c #FCCCDB",
"uX c #E7D4D9",
"iX c #F5D3DC",
"pX c #FCD2DC",
"aX c #F8D8D8",
"sX c #E6D2C8",
"dX c #F8E7D7",
"fX c #E9E4DD",
"gX c #C6DAEE",
"hX c #FCCCE3",
"jX c #F8CAE4",
"kX c #E6DAE4",
"lX c #F5D5E3",
"zX c #FCD4E2",
"xX c #F4DBE4",
"cX c #FBDCE5",
"vX c #F6DEEB",
"bX c #FCDCEA",
"nX c #FCD4E9",
"mX c #F7DBF3",
"MX c #EAE4E6",
"NX c #ECE5EA",
"BX c #ECE9EB",
"VX c #E7E8E5",
"CX c #F3E3E6",
"ZX c #F4E4EB",
"AX c #FCE3EC",
"SX c #FBEAED",
"DX c #F6EBE9",
"FX c #F8F1EC",
"GX c #FCECF3",
"HX c #F9E7F3",
"JX c #FDF2F5",
"KX c #FDF5FA",
"LX c #FDFBFC",
"PX c #F7F5F5",
"IX c #EEEAF5",
"UX c #CBE0FC",
/* pixels */
"                                                                                                                                ",
"                                                                                                                                ",
"                                                                                                                                ",
"                                                                                                                                ",
"                                                                                                                                ",
"                                                                                                                                ",
"                                                                                                                                ",
"                                                                                                                                ",
"                                                                                                                                ",
"                                                                                                                                ",
"                                                                                                                                ",
"                                                                                                                                ",
"                                                                                                                                ",
"                                                                                                                                ",
"                                                                                                                                ",
"                                                                                                                                ",
"                                                                                                                                ",
"                                                                                                                                ",
"                                                                                                                                ",
"                                                                                                                                ",
"                                                                                                                                ",
"                                                          7X&XF.n.8X8X2X                                                        ",
"                                                      tX'.>.+. .} ..P.c.0.0X                                                    ",
"                                                    5X&.> & + ; f f 3 ! OXB.8X                                                  ",
"                                                  7Xs k Y w w f %._ s k Y 4XJ. X                                                ",
"                                                iXs k Y s.w f c f.q k Y u.u.Y.B.0X                                              ",
"                                                &Xs k Y s.u /.d.;.s.c.1.u.G k 2X{.                                              ",
"                                              uX0.% s.s.u N c.;.0 r.l.W G k Y ).A.rX                                            ",
"                                              tXs k Y u b.u y.d.] y.Q L f T y.y.#X*X                                            ",
"                                              2X/ * u f.f.u S.3 3 3 P y.d.] y.Q F. X                                            ",
"                                              :XX.y.Q L a.f 3 3     ;Xp.R E.W.=X4.@X                                            ",
"                                              ,X( - f s.s.V 3         I.u.T u.G <.`.                                            ",
"                                              wXS.B.{.s.p R k.        @.u.u.G f 9.-X                                            ",
"                                              =XoXS.B.{.c i.7.n     A.h y.L f V m.~.                                            ",
"                                              8 >XU.- f f R B r B.r.f w Y c f *.3XM                                             ",
"                                                +.#X+.f f x C p A E y P m f A m.~.                                              ",
"                                                t =XS.B.{.s u.T o.~ T m f S 0.(.w                                               ",
"                                                  w I.0.0.D 1.y.y.T m A *.F.(.;                                                 ",
"                                                    3 [ &XH.B.M.7.*.;.'.eX#.w                                                   ",
"                                                      3 w ) U.OXE.W.=X` 3 w                                                     ",
"                                                          3 3 w 3 3 3 3                                                         ",
"                                                                                                                                ",
"                                                                                                                                ",
"                                                                                                                                ",
"                                                                                                                                ",
"                                                                                                                                ",
"                                                                                                                                ",
"                                                                                                                                ",
"                                                                                                                                ",
"                                                                                                                                ",
"                                                                                                                                ",
"                                                                                                                                ",
"                                                                                                                                ",
"                                                                                                                                ",
"                                                                                                                                ",
"                                                                                                                                ",
"                                                                                                                                ",
"                                                                                                                                ",
"                                                                                                                                ",
"                                                                                                                                ",
"                                                                                                                                ",
"                                                                                                                                ",
"                                                                                                                                ",
"                                                                                                                                "
};
